<svg width="32" height="32" viewBox="0 0 32 32" fill="none" xmlns="http://www.w3.org/2000/svg">
<path d="M11.5129 24.3253C11.5129 22.2062 13.2311 20.488 15.3502 20.488V16.6507H0V20.488C2.11911 20.488 3.83733 22.2062 3.83733 24.3253C3.83733 26.4445 2.11911 28.1627 0 28.1627V32H15.3502V28.1627C13.2311 28.1627 11.5129 26.4445 11.5129 24.3253Z" fill="#05BFE0"/>
<path d="M24.3244 7.67378C24.3236 3.43556 20.888 0 16.6498 0V15.3502C20.888 15.3502 24.3236 11.9147 24.3244 7.67733C24.3244 11.9156 27.7609 15.3502 32 15.3502V0C27.7618 0 24.3253 3.43556 24.3244 7.67378Z" fill="#FF610F"/>
<path d="M10.0738 7.67556H2.87822V2.87911H10.0738C11.3982 2.87911 12.472 3.95289 12.472 5.27733C12.472 6.60178 11.3982 7.67556 10.0738 7.67556ZM10.5538 0.0231111C10.3956 0.00888889 10.2356 0 10.0738 0H0V15.3502H2.87822V10.5529H10.0738C10.2356 10.5529 10.3956 10.5449 10.5538 10.5307C13.2427 10.288 15.3502 8.02933 15.3502 5.27644C15.3502 2.52356 13.2427 0.264889 10.5538 0.0231111Z" fill="white"/>
<path d="M16.6498 32V27.656L20.9938 32H16.6498Z" fill="#4F17A8"/>
<path d="M25.4053 32L16.6498 23.2444V18.8329L29.8178 32H25.4053Z" fill="#4F17A8"/>
<path d="M31.9991 16.648V20.944L27.7031 16.648H31.9991Z" fill="#4F17A8"/>
<path d="M32 29.7698L18.88 16.6498H23.2916L32 25.3573V29.7698Z" fill="#4F17A8"/>
</svg>
